<?xml version="1.0" encoding="UTF-8"?>
<svg version="1.1" xmlns="http://www.w3.org/2000/svg" width="512" height="512">
<path d="M0 0 C0.90054108 -0.00701431 1.80108215 -0.01402863 2.72891235 -0.02125549 C5.61750351 -0.03865402 8.50588962 -0.0451074 11.39453125 -0.046875 C12.38190277 -0.04754974 13.36927429 -0.04822449 14.38656616 -0.04891968 C28.87791389 -0.03317157 42.94723376 0.41971425 57.20703125 3.203125 C58.5525708 3.44458252 58.5525708 3.44458252 59.92529297 3.69091797 C109.46556968 12.65518497 153.92796357 36.65010988 190.20703125 71.203125 C191.10542725 72.05849854 191.10542725 72.05849854 192.02197266 72.93115234 C200.36936508 80.93818658 208.01620673 89.16119067 214.90527344 98.45703125 C216.20622753 100.20204695 217.53542624 101.92208563 218.87109375 103.640625 C249.0421975 142.96010463 268.14898101 194.21603264 268.41015625 243.99609375 C268.41717056 244.89663483 268.42418488 245.7971759 268.43141174 246.7250061 C268.44881027 249.61359726 268.45526365 252.50198337 268.45703125 255.390625 C268.45804337 256.87168228 268.45804337 256.87168228 268.45907593 258.38265991 C268.44332782 272.87400764 267.990442 286.94332751 265.20703125 301.203125 C265.04605957 302.10015137 264.88508789 302.99717773 264.71923828 303.92138672 C255.75497128 353.46166343 231.76004637 397.92405732 197.20703125 434.203125 C196.35165771 435.101521 196.35165771 435.101521 195.47900391 436.01806641 C187.47196967 444.36545883 179.24896558 452.01230048 169.953125 458.90136719 C168.2081093 460.20232128 166.48807062 461.53151999 164.76953125 462.8671875 C125.45005162 493.03829125 74.19412361 512.14507476 24.4140625 512.40625 C23.51352142 512.41326431 22.61298035 512.42027863 21.68515015 512.42750549 C18.79655899 512.44490402 15.90817288 512.4513574 13.01953125 512.453125 C12.03215973 512.45379974 11.04478821 512.45447449 10.02749634 512.45516968 C-4.46385139 512.43942157 -18.53317126 511.98653575 -32.79296875 509.203125 C-33.68999512 509.04215332 -34.58702148 508.88118164 -35.51123047 508.71533203 C-85.05150718 499.75106503 -129.51390107 475.75614012 -165.79296875 441.203125 C-166.39189941 440.63287598 -166.99083008 440.06262695 -167.60791016 439.47509766 C-175.95530258 431.46806342 -183.60214423 423.24505933 -190.49121094 413.94921875 C-191.79216503 412.20420305 -193.12136374 410.48416437 -194.45703125 408.765625 C-224.628135 369.44614537 -243.73491851 318.19021736 -243.99609375 268.41015625 C-244.00310806 267.50961517 -244.01012238 266.6090741 -244.01734924 265.6812439 C-244.03474777 262.79265274 -244.04120115 259.90426663 -244.04296875 257.015625 C-244.04364349 256.02825348 -244.04431824 255.04088196 -244.04501343 254.02359009 C-244.02926532 239.53224236 -243.5763795 225.46292249 -240.79296875 211.203125 C-240.55151123 209.85758545 -240.55151123 209.85758545 -240.30517578 208.48486328 C-231.34090878 158.94458657 -207.34598387 114.48219268 -172.79296875 78.203125 C-172.22271973 77.60419434 -171.6524707 77.00526367 -171.06494141 76.38818359 C-163.05790717 68.04079117 -154.83490308 60.39394952 -145.5390625 53.50488281 C-143.7940468 52.20392872 -142.07400812 50.87473001 -140.35546875 49.5390625 C-101.03598912 19.36795875 -49.78006111 0.26117524 0 0 Z " fill="#8800FF" transform="translate(243.79296875,-0.203125)"/>
<path d="M0 0 C15.46386212 12.06468499 26.06637884 30.447277 28.8046875 49.97436523 C31.2459608 71.25811118 30.33389316 92.61397618 25.15527344 113.38232422 C24.60481627 115.63562532 24.12462019 117.88279341 23.6875 120.16015625 C17.44801273 150.77071012 3.97894811 180.89668359 -7.40063477 209.88378906 C-7.71522644 210.68607941 -8.02981812 211.48836975 -8.35394287 212.31497192 C-8.94718548 213.8241546 -9.5431109 215.33228697 -10.14239502 216.83908081 C-16.19772694 232.22763094 -19.86768371 249.79538638 -14.4765625 265.96875 C-12.22418046 268.79565268 -11.64757925 268.94516148 -7.8515625 269.46875 C5.01801312 268.90511895 16.67815747 255.1166843 25.5234375 246.96875 C26.08724121 246.45538086 26.65104492 245.94201172 27.23193359 245.41308594 C34.6754641 238.63327188 41.89139794 231.7662149 48.57958984 224.23144531 C55.5771564 216.39598244 55.5771564 216.39598244 60.0859375 215.40625 C63.61901606 216.22157582 64.61539828 217.97040266 66.5234375 220.96875 C70.45481549 232.23870024 67.38591309 245.65081399 62.5234375 255.96875 C57.52324901 266.17275456 51.20209889 274.62765916 43.5234375 282.96875 C42.73195313 283.84273438 41.94046875 284.71671875 41.125 285.6171875 C23.95457468 303.70032645 -3.02899646 320.44776573 -28.61328125 321.13671875 C-42.54584134 321.27997631 -56.23339128 320.8782372 -67.42578125 311.30078125 C-68.97007049 309.60089611 -70.23821072 307.90107744 -71.4765625 305.96875 C-71.84007812 305.42089844 -72.20359375 304.87304688 -72.578125 304.30859375 C-87.62566531 278.17641497 -77.68666734 244.42580696 -70.5390625 217.53125 C-67.48759499 206.24212056 -64.13203727 195.07526063 -60.4765625 183.96875 C-80.64696962 182.31283379 -100.76945611 181.44568321 -120.9942627 180.90429688 C-124.790573 180.8013292 -128.58667994 180.69132304 -132.3828125 180.58203125 C-139.74722076 180.37098468 -147.11180546 180.16729679 -154.4765625 179.96875 C-154.66593384 181.7933374 -154.66593384 181.7933374 -154.85913086 183.65478516 C-155.63580683 191.10476728 -156.41240723 198.55361348 -157.29296875 205.9921875 C-159.18917374 222.02485961 -160.28998774 237.8709298 -160.62908936 254.00588989 C-160.68421998 256.61953217 -160.7421672 259.23310247 -160.80029297 261.84667969 C-160.87745923 265.32770019 -160.94115806 268.80861103 -160.99658203 272.29003906 C-161.24694102 285.59787783 -161.74215272 299.82098479 -171.2734375 310.21875 C-176.09526777 314.04885631 -181.82858003 316.4798856 -187.40576172 319.01220703 C-189.33100488 319.90151412 -191.21764442 320.84300947 -193.10546875 321.80859375 C-202.01414489 326.11597414 -211.0404549 328.10584983 -220.80078125 325.30078125 C-226.42378849 322.50757375 -229.46963531 317.69827912 -231.56201172 312.02636719 C-234.24507623 303.2216491 -235.07506097 295.27124631 -234.9140625 286.09375 C-234.9075769 285.42677094 -234.90109131 284.75979187 -234.89440918 284.07260132 C-234.69889747 264.35196687 -231.74426999 245.18537376 -227.4765625 225.96875 C-227.12972412 224.39262939 -227.12972412 224.39262939 -226.77587891 222.78466797 C-219.93980065 191.8952263 -219.93980065 191.8952263 -216.4765625 184.96875 C-222.47227001 185.80478355 -228.46795619 186.64096985 -234.46362305 187.47729492 C-236.50137767 187.76151615 -238.53913802 188.04569636 -240.5769043 188.32983398 C-243.51352435 188.73931141 -246.45012349 189.14893858 -249.38671875 189.55859375 C-250.29116226 189.68467514 -251.19560577 189.81075653 -252.12745667 189.94065857 C-252.98782028 190.06070755 -253.8481839 190.18075653 -254.73461914 190.30444336 C-255.54623001 190.41756866 -256.35784088 190.53069397 -257.19404602 190.64724731 C-259.26675957 190.93919832 -261.3380607 191.24113337 -263.40917969 191.54418945 C-266.51806538 191.97449447 -269.52670485 192.17004587 -272.6640625 192.21875 C-273.66824219 192.24453125 -274.67242187 192.2703125 -275.70703125 192.296875 C-278.88164398 191.92075727 -280.21223385 191.19085341 -282.4765625 188.96875 C-283.54496295 184.58830817 -282.04170001 181.78456229 -279.9140625 178.03125 C-266.18634927 156.78975377 -238.37097475 148.09125742 -215.125 142.1171875 C-214.35881348 141.91158203 -213.59262695 141.70597656 -212.80322266 141.49414062 C-210.4765625 140.96875 -210.4765625 140.96875 -208.06787109 140.77148438 C-205.52374838 140.50373746 -203.74464528 140.16590181 -201.4765625 138.96875 C-199.02418683 135.50916291 -197.75811365 131.6964037 -196.3515625 127.71875 C-195.42668474 125.33904203 -194.49269676 122.96285956 -193.55078125 120.58984375 C-193.30767715 119.96998093 -193.06457306 119.3501181 -192.81410217 118.71147156 C-189.97713259 111.55035801 -186.62295301 104.65926224 -183.1640625 97.78125 C-182.84752716 97.15132141 -182.53099182 96.52139282 -182.2048645 95.87237549 C-172.92337841 77.50011272 -162.38238548 60.03343537 -149.4765625 43.96875 C-149.0434375 43.42138184 -148.6103125 42.87401367 -148.1640625 42.31005859 C-113.61494309 -1.12650579 -52.87678672 -36.20392604 0 0 Z " fill="#FEFDFF" transform="translate(363.4765625,100.03125)"/>
<path d="M0 0 C0.83901855 -0.02231689 1.67803711 -0.04463379 2.54248047 -0.06762695 C9.68971153 -0.04172612 15.55305021 1.76955163 21.20703125 6.2265625 C31.31539551 18.25423643 32.08362127 32.32549587 30.9375 47.4375 C30.39006321 51.68147684 29.64398817 55.86558772 28.8125 60.0625 C28.62478027 61.02510742 28.43706055 61.98771484 28.24365234 62.97949219 C26.23869323 72.37138951 23.07179111 81.37572244 19.9375 90.4375 C11.75445156 90.46115074 3.57141846 90.47867338 -4.61165619 90.48931217 C-8.4154332 90.49442999 -12.2191861 90.50131228 -16.02294922 90.51293945 C-37.05800875 90.57555029 -58.04185431 90.24148647 -79.0625 89.4375 C-75.3496479 61.45670739 -58.48339851 29.88300512 -36 12.4375 C-30.91608676 8.85580112 -25.80375622 5.82969009 -20.0625 3.4375 C-19.35609375 3.11910156 -18.6496875 2.80070313 -17.921875 2.47265625 C-12.0720555 0.25340654 -6.186422 0.09795451 0 0 Z " fill="#8801FF" transform="translate(299.0625,146.5625)"/>
</svg>
